Coordinates
version=1
nRows=16
nColumns=22
inDegrees=yes

Units are S.I. units (second, meters, Newtons, ...)
If the header above contains a line with 'inDegrees', this indicates whether rotational values are in degrees (yes) or radians (no).

endheader
time	pelvis_tilt	pelvis_list	pelvis_rotation	pelvis_tx	pelvis_ty	pelvis_tz	hip_flexion_r	hip_adduction_r	hip_rotation_r	knee_angle_r	ankle_angle_r	subtalar_angle_r	hip_flexion_l	hip_adduction_l	hip_rotation_l	knee_angle_l	ankle_angle_l	subtalar_angle_l	lumbar_extension	lumbar_bending	lumbar_rotation
      4.69000000	      4.00579337	      1.84180184	   -182.40603636	     -0.52359567	      0.85443080	     -0.29029284	     31.43660245	      0.26455224	     -0.33384204	    -21.99131829	     -2.43559466	     -4.01271313	    -12.11280056	     -5.52365834	      6.43921662	    -27.09752337	      9.40747123	     14.55693776	     -0.31050605	      2.92360614	     -0.22350473
      4.70000000	      4.07292473	      1.71516502	   -182.28736260	     -0.53104514	      0.85642979	     -0.29260229	     30.97906779	      0.24031133	     -0.45639889	    -22.07966909	     -1.78201766	     -4.18475155	    -10.72023061	     -5.48133970	      6.61749562	    -29.79494276	      7.39644730	     15.49463857	     -0.25156391	      2.94038097	     -0.20180727
      4.71000000	      4.14945002	      1.58150276	   -182.16186128	     -0.53820266	      0.85829078	     -0.29488112	     30.47577103	      0.20519827	     -0.60657373	    -22.02907719	     -1.13597506	     -4.40247645	     -9.18757868	     -5.44698269	      6.74017964	    -32.60868167	      5.44206743	     16.82416697	     -0.20375348	      2.93604471	     -0.11871927
      4.72000000	      4.22539704	      1.45520826	   -181.96697679	     -0.54496870	      0.86001195	     -0.29695266	     29.95342001	      0.12846286	     -0.86840021	    -21.89890645	     -0.59794757	     -4.60985528	     -7.50356757	     -5.43448524	      6.88422404	    -35.54948521	      3.66727254	     18.23177548	     -0.19158111	      2.93718235	     -0.06943868
      4.73000000	      4.32455127	      1.37637760	   -181.74057264	     -0.55135994	      0.86151479	     -0.29889480	     29.44221214	      0.07888604	     -1.17478466	    -21.70489505	     -0.04734841	     -4.79657660	     -5.67395574	     -5.49614986	      6.97166002	    -38.57772046	      2.20595856	     19.61934386	     -0.18412271	      2.98744119	      0.00108626
      4.74000000	      4.39618209	      1.35889037	   -181.50830053	     -0.55737827	      0.86289164	     -0.30074841	     28.91228850	      0.08047431	     -1.52780697	    -21.48216956	      0.42295767	     -4.97612283	     -3.78787214	     -5.65361791	      6.96161681	    -41.61955607	      1.08230245	     20.95757331	     -0.24419589	      3.09771805	      0.12463982
      4.75000000	      4.44336319	      1.41340564	   -181.29162261	     -0.56305202	      0.86414443	     -0.30256318	     28.37396065	      0.15883145	     -1.89808658	    -21.24407306	      0.83380635	     -5.14670877	     -1.86533557	     -5.93284815	      6.81719630	    -44.62547783	      0.34155520	     22.08292063	     -0.36152039	      3.27995314	      0.32595374
      4.76000000	      4.46062964	      1.54162122	   -181.11529716	     -0.56841950	      0.86529866	     -0.30441847	     27.82462682	      0.33369249	     -2.24412505	    -20.99640069	      1.19958968	     -5.30199370	      0.06496881	     -6.35252866	      6.50969478	    -47.54612267	     -0.00844208	     22.82928866	     -0.53697301	      3.53091321	      0.61925117
      4.77000000	      4.42102730	      1.74279801	   -181.01073920	     -0.57356081	      0.86643138	     -0.30640760	     27.22225801	      0.62508887	     -2.52524454	    -20.71852857	      1.50649757	     -5.39378701	      1.93520339	     -6.92651995	      6.01624245	    -50.31181145	      0.00877257	     23.08313265	     -0.79247596	      3.84343583	      1.03362210
      4.78000000	      4.37506651	      1.94962471	   -180.98021145	     -0.57847960	      0.86748911	     -0.30854486	     26.65163392	      0.96920632	     -2.70339313	    -20.46635962	      1.80177923	     -5.52718267	      3.78511115	     -7.56848541	      5.40185812	    -52.88199943	      0.29682534	     23.03457369	     -1.06389058	      4.13544855	      1.56923652
      4.79000000	      4.33561269	      2.13870523	   -181.01067378	     -0.58324428	      0.86848258	     -0.31080829	     26.11740010	      1.33011006	     -2.81878395	    -20.23334136	      2.09623486	     -5.78714177	      5.62304408	     -8.25650213	      4.66262738	    -55.23942492	      0.77529470	     22.29438746	     -1.32391952	      4.38294526	      2.16939121
      4.80000000	      4.25198348	      2.32544125	   -181.13000401	     -0.58791083	      0.86954777	     -0.31326322	     25.53163388	      1.74181321	     -2.80512955	    -19.96194841	      2.33846533	     -5.96088416	      7.34667461	     -8.99004046	      3.82749698	    -57.32805493	      1.40719445	     21.14186667	     -1.63092653	      4.59777058	      2.88646994
      4.81000000	      4.15935863	      2.45900201	   -181.32801271	     -0.59247749	      0.87063981	     -0.31585182	     24.95100379	      2.13879613	     -2.67706451	    -19.69042673	      2.54992945	     -6.13588075	      8.99244406	     -9.69634886	      2.91879511	    -59.14729396	      2.12302031	     19.63079266	     -1.94090575	      4.72780379	      3.67684996
      4.82000000	      4.04773685	      2.51617049	   -181.59766045	     -0.59692872	      0.87177972	     -0.31853987	     24.38951547	      2.48656530	     -2.45985546	    -19.46764733	      2.74961900	     -6.32178360	     10.53969425	    -10.32963110	      1.95723876	    -60.68881194	      2.89415151	     17.83584810	     -2.26745443	      4.74840856	      4.51394673
      4.83000000	      3.95572538	      2.50715096	   -181.91309444	     -0.60129066	      0.87295149	     -0.32124589	     23.83252937	      2.78245297	     -2.15680345	    -19.19383611	      2.92700635	     -6.49868975	     12.03222444	    -10.87533448	      0.99626376	    -61.95524536	      3.65551507	     15.99068677	     -2.55663413	      4.67793599	      5.37711533
      4.84000000	      3.87487627	      2.43049328	   -182.26471140	     -0.60554307	      0.87415893	     -0.32392387	     23.29447108	      3.01202256	     -1.81341723	    -18.91188926	      3.07964047	     -6.66531526	     13.45843438	    -11.32026009	      0.03754220	    -62.94958836	      4.39761913	     14.19108302	     -2.81965114	      4.52050566	      6.24507464
